  0
SECTION
  2
HEADER
  9
$ANGBASE
  50
0.0
  9
$ANGDIR
  70
1
  9
$MEASUREMENT
  70
1
  0
ENDSEC
  0
SECTION
  2
TABLES
  0
TABLE
  2
LTYPE
  70
4
  0
LTYPE
  5
40F
  2
CONTINUOUS
  70
0
  3
Solid line
  72
65
  73
0
  40
0.0
  0
LTYPE
  5
410
  2
DASHDOT
 70
0
  3
Dash Dot ____ _ ____ _
 72
65
 73
4
 40
2.0
 49
1.25
 49
-0.25
 49
0.25
 49
-0.25
  0
LTYPE
  5
411
  2
DASHED
 70
0
  3
Dashed __ __ __ __ __
 72
65
 73
2
 40
0.75
 49
0.5
 49
-0.25
  0
LTYPE
  5
43B
  2
DOTTED
 70
0
  3
Dotted .  .  .  .
 72
65
 73
2
 40
0.2
 49
0.0
 49
-0.2
  0
ENDTAB
  0
TABLE
  2
STYLE
  70
4
  0
STYLE
  2
KICAD
  70
0
  40
0
  41
1
  42
1
  50
0
  71
0
  3
isocp.shx
  0
STYLE
  2
KICADB
  70
0
  40
0
  41
1
  42
1
  50
0
  71
0
  3
isocp.shx
  0
STYLE
  2
KICADI
  70
0
  40
0
  41
1
  42
1
  50
15
  71
0
  3
isocp.shx
  0
STYLE
  2
KICADBI
  70
0
  40
0
  41
1
  42
1
  50
15
  71
0
  3
isocp.shx
  0
ENDTAB
  0
TABLE
  2
LAYER
  70
1
  0
LAYER
  2
BLACK
  70
0
  62
7
  6
CONTINUOUS
  0
ENDTAB
  0
ENDSEC
  0
SECTION
  2
ENTITIES
0
LINE
8
BLACK
6
CONTINUOUS
10
162.4000000000000057
20
-70.375
11
162.7161989999999889
21
-70.391570999999999
0
LINE
8
BLACK
6
CONTINUOUS
10
162.7161989999999889
20
-70.391570999999999
11
163.028932999999995
21
-70.4411039999999957
0
LINE
8
BLACK
6
CONTINUOUS
10
163.028932999999995
20
-70.4411039999999957
11
163.3347760000000051
21
-70.5230540000000019
0
LINE
8
BLACK
6
CONTINUOUS
10
163.3347760000000051
20
-70.5230540000000019
11
163.630377999999979
21
-70.6365249999999918
0
LINE
8
BLACK
6
CONTINUOUS
10
163.630377999999979
20
-70.6365249999999918
11
163.9124999999999943
21
-70.780272999999994
0
LINE
8
BLACK
6
CONTINUOUS
10
163.9124999999999943
20
-70.780272999999994
11
164.1780499999999847
21
-70.9527240000000035
0
LINE
8
BLACK
6
CONTINUOUS
10
164.1780499999999847
20
-70.9527240000000035
11
164.4241199999999878
21
-71.1519869999999912
0
LINE
8
BLACK
6
CONTINUOUS
10
164.4241199999999878
20
-71.1519869999999912
11
164.6480129999999917
21
-71.3758799999999951
0
LINE
8
BLACK
6
CONTINUOUS
10
164.6480129999999917
20
-71.3758799999999951
11
164.8472759999999937
21
-71.6219499999999982
0
LINE
8
BLACK
6
CONTINUOUS
10
164.8472759999999937
20
-71.6219499999999982
11
165.0197269999999889
21
-71.8875000000000028
0
LINE
8
BLACK
6
CONTINUOUS
10
165.0197269999999889
20
-71.8875000000000028
11
165.1634750000000054
21
-72.1696219999999897
0
LINE
8
BLACK
6
CONTINUOUS
10
165.1634750000000054
20
-72.1696219999999897
11
165.276945999999981
21
-72.4652239999999921
0
LINE
8
BLACK
6
CONTINUOUS
10
165.276945999999981
20
-72.4652239999999921
11
165.3588959999999872
21
-72.7710670000000022
0
LINE
8
BLACK
6
CONTINUOUS
10
165.3588959999999872
20
-72.7710670000000022
11
165.4084289999999839
21
-73.083800999999994
0
LINE
8
BLACK
6
CONTINUOUS
10
165.4084289999999839
20
-73.083800999999994
11
165.4249999999999829
21
-73.3999999999999915
0
LINE
8
BLACK
6
CONTINUOUS
10
165.4249999999999829
20
-73.3999999999999915
11
165.4249999999999829
21
-127.3999999999999915
0
LINE
8
BLACK
6
CONTINUOUS
10
165.4249999999999829
20
-127.3999999999999915
11
165.4084289999999839
21
-127.7161989999999889
0
LINE
8
BLACK
6
CONTINUOUS
10
165.4084289999999839
20
-127.7161989999999889
11
165.3588959999999872
21
-128.028932999999995
0
LINE
8
BLACK
6
CONTINUOUS
10
165.3588959999999872
20
-128.028932999999995
11
165.276945999999981
21
-128.3347760000000051
0
LINE
8
BLACK
6
CONTINUOUS
10
165.276945999999981
20
-128.3347760000000051
11
165.1634750000000054
21
-128.6303780000000074
0
LINE
8
BLACK
6
CONTINUOUS
10
165.1634750000000054
20
-128.6303780000000074
11
165.0197269999999889
21
-128.9124999999999943
0
LINE
8
BLACK
6
CONTINUOUS
10
165.0197269999999889
20
-128.9124999999999943
11
164.8472759999999937
21
-129.1780499999999847
0
LINE
8
BLACK
6
CONTINUOUS
10
164.8472759999999937
20
-129.1780499999999847
11
164.6480129999999917
21
-129.4241199999999878
0
LINE
8
BLACK
6
CONTINUOUS
10
164.6480129999999917
20
-129.4241199999999878
11
164.4241199999999878
21
-129.6480129999999917
0
LINE
8
BLACK
6
CONTINUOUS
10
164.4241199999999878
20
-129.6480129999999917
11
164.1780499999999847
21
-129.8472759999999937
0
LINE
8
BLACK
6
CONTINUOUS
10
164.1780499999999847
20
-129.8472759999999937
11
163.9124999999999943
21
-130.0197269999999889
0
LINE
8
BLACK
6
CONTINUOUS
10
163.9124999999999943
20
-130.0197269999999889
11
163.630377999999979
21
-130.1634750000000054
0
LINE
8
BLACK
6
CONTINUOUS
10
163.630377999999979
20
-130.1634750000000054
11
163.3347760000000051
21
-130.276945999999981
0
LINE
8
BLACK
6
CONTINUOUS
10
163.3347760000000051
20
-130.276945999999981
11
163.028932999999995
21
-130.3588959999999872
0
LINE
8
BLACK
6
CONTINUOUS
10
163.028932999999995
20
-130.3588959999999872
11
162.7161989999999889
21
-130.4084289999999839
0
LINE
8
BLACK
6
CONTINUOUS
10
162.7161989999999889
20
-130.4084289999999839
11
162.4000000000000057
21
-130.4249999999999829
0
LINE
8
BLACK
6
CONTINUOUS
10
162.4000000000000057
20
-130.4249999999999829
11
128.4000000000000057
21
-130.4249999999999829
0
LINE
8
BLACK
6
CONTINUOUS
10
128.4000000000000057
20
-130.4249999999999829
11
128.083800999999994
21
-130.4084289999999839
0
LINE
8
BLACK
6
CONTINUOUS
10
128.083800999999994
20
-130.4084289999999839
11
127.771066999999988
21
-130.3588959999999872
0
LINE
8
BLACK
6
CONTINUOUS
10
127.771066999999988
20
-130.3588959999999872
11
127.4652239999999921
21
-130.276945999999981
0
LINE
8
BLACK
6
CONTINUOUS
10
127.4652239999999921
20
-130.276945999999981
11
127.1696219999999897
21
-130.1634750000000054
0
LINE
8
BLACK
6
CONTINUOUS
10
127.1696219999999897
20
-130.1634750000000054
11
126.8874999999999886
21
-130.0197269999999889
0
LINE
8
BLACK
6
CONTINUOUS
10
126.8874999999999886
20
-130.0197269999999889
11
126.6219499999999982
21
-129.8472759999999937
0
LINE
8
BLACK
6
CONTINUOUS
10
126.6219499999999982
20
-129.8472759999999937
11
126.3758799999999951
21
-129.6480129999999917
0
LINE
8
BLACK
6
CONTINUOUS
10
126.3758799999999951
20
-129.6480129999999917
11
126.1519869999999912
21
-129.4241199999999878
0
LINE
8
BLACK
6
CONTINUOUS
10
126.1519869999999912
20
-129.4241199999999878
11
125.9527239999999892
21
-129.1780499999999847
0
LINE
8
BLACK
6
CONTINUOUS
10
125.9527239999999892
20
-129.1780499999999847
11
125.780272999999994
21
-128.9124999999999943
0
LINE
8
BLACK
6
CONTINUOUS
10
125.780272999999994
20
-128.9124999999999943
11
125.6365249999999918
21
-128.6303780000000074
0
LINE
8
BLACK
6
CONTINUOUS
10
125.6365249999999918
20
-128.6303780000000074
11
125.5230539999999877
21
-128.3347760000000051
0
LINE
8
BLACK
6
CONTINUOUS
10
125.5230539999999877
20
-128.3347760000000051
11
125.4411039999999957
21
-128.028932999999995
0
LINE
8
BLACK
6
CONTINUOUS
10
125.4411039999999957
20
-128.028932999999995
11
125.391570999999999
21
-127.7161989999999889
0
LINE
8
BLACK
6
CONTINUOUS
10
125.391570999999999
20
-127.7161989999999889
11
125.375
21
-127.3999999999999915
0
LINE
8
BLACK
6
CONTINUOUS
10
125.375
20
-127.3999999999999915
11
125.375
21
-73.3999999999999915
0
LINE
8
BLACK
6
CONTINUOUS
10
125.375
20
-73.3999999999999915
11
125.391570999999999
21
-73.083800999999994
0
LINE
8
BLACK
6
CONTINUOUS
10
125.391570999999999
20
-73.083800999999994
11
125.4411039999999957
21
-72.7710670000000022
0
LINE
8
BLACK
6
CONTINUOUS
10
125.4411039999999957
20
-72.7710670000000022
11
125.5230539999999877
21
-72.4652239999999921
0
LINE
8
BLACK
6
CONTINUOUS
10
125.5230539999999877
20
-72.4652239999999921
11
125.6365249999999918
21
-72.1696219999999897
0
LINE
8
BLACK
6
CONTINUOUS
10
125.6365249999999918
20
-72.1696219999999897
11
125.780272999999994
21
-71.8875000000000028
0
LINE
8
BLACK
6
CONTINUOUS
10
125.780272999999994
20
-71.8875000000000028
11
125.9527239999999892
21
-71.6219499999999982
0
LINE
8
BLACK
6
CONTINUOUS
10
125.9527239999999892
20
-71.6219499999999982
11
126.1519869999999912
21
-71.3758799999999951
0
LINE
8
BLACK
6
CONTINUOUS
10
126.1519869999999912
20
-71.3758799999999951
11
126.3758799999999951
21
-71.1519869999999912
0
LINE
8
BLACK
6
CONTINUOUS
10
126.3758799999999951
20
-71.1519869999999912
11
126.6219499999999982
21
-70.9527240000000035
0
LINE
8
BLACK
6
CONTINUOUS
10
126.6219499999999982
20
-70.9527240000000035
11
126.8874999999999886
21
-70.780272999999994
0
LINE
8
BLACK
6
CONTINUOUS
10
126.8874999999999886
20
-70.780272999999994
11
127.1696219999999897
21
-70.6365249999999918
0
LINE
8
BLACK
6
CONTINUOUS
10
127.1696219999999897
20
-70.6365249999999918
11
127.4652239999999921
21
-70.5230540000000019
0
LINE
8
BLACK
6
CONTINUOUS
10
127.4652239999999921
20
-70.5230540000000019
11
127.771066999999988
21
-70.4411039999999957
0
LINE
8
BLACK
6
CONTINUOUS
10
127.771066999999988
20
-70.4411039999999957
11
128.083800999999994
21
-70.391570999999999
0
LINE
8
BLACK
6
CONTINUOUS
10
128.083800999999994
20
-70.391570999999999
11
128.4000000000000057
21
-70.375
0
LINE
8
BLACK
6
CONTINUOUS
10
128.4000000000000057
20
-70.375
11
162.4000000000000057
21
-70.375
0
LINE
8
BLACK
6
CONTINUOUS
10
128.4000000000000057
20
-70.4249999999999972
11
128.2440870000000075
21
-70.4249999999999972
0
LINE
8
BLACK
6
CONTINUOUS
10
128.2440870000000075
20
-70.4249999999999972
11
127.9339689999999905
21
-70.4575940000000003
0
LINE
8
BLACK
6
CONTINUOUS
10
127.9339689999999905
20
-70.4575940000000003
11
127.6289569999999998
21
-70.5224269999999933
0
LINE
8
BLACK
6
CONTINUOUS
10
127.6289569999999998
20
-70.5224269999999933
11
127.3323919999999987
21
-70.6187860000000001
0
LINE
8
BLACK
6
CONTINUOUS
10
127.3323919999999987
20
-70.6187860000000001
11
127.0475249999999932
21
-70.7456179999999932
0
LINE
8
BLACK
6
CONTINUOUS
10
127.0475249999999932
20
-70.7456179999999932
11
126.7774749999999955
21
-70.9015309999999914
0
LINE
8
BLACK
6
CONTINUOUS
10
126.7774749999999955
20
-70.9015309999999914
11
126.5252019999999931
21
-71.0848179999999985
0
LINE
8
BLACK
6
CONTINUOUS
10
126.5252019999999931
20
-71.0848179999999985
11
126.2934699999999992
21
-71.2934699999999992
0
LINE
8
BLACK
6
CONTINUOUS
10
126.2934699999999992
20
-71.2934699999999992
11
126.0848179999999985
21
-71.5252019999999931
0
LINE
8
BLACK
6
CONTINUOUS
10
126.0848179999999985
20
-71.5252019999999931
11
125.9015309999999914
21
-71.7774749999999955
0
LINE
8
BLACK
6
CONTINUOUS
10
125.9015309999999914
20
-71.7774749999999955
11
125.7456179999999932
21
-72.0475249999999932
0
LINE
8
BLACK
6
CONTINUOUS
10
125.7456179999999932
20
-72.0475249999999932
11
125.6187860000000001
21
-72.3323919999999987
0
LINE
8
BLACK
6
CONTINUOUS
10
125.6187860000000001
20
-72.3323919999999987
11
125.5224269999999933
21
-72.6289569999999998
0
LINE
8
BLACK
6
CONTINUOUS
10
125.5224269999999933
20
-72.6289569999999998
11
125.4575940000000003
21
-72.9339689999999905
0
LINE
8
BLACK
6
CONTINUOUS
10
125.4575940000000003
20
-72.9339689999999905
11
125.4249999999999972
21
-73.2440869999999933
0
LINE
8
BLACK
6
CONTINUOUS
10
125.4249999999999972
20
-73.2440869999999933
11
125.4249999999999972
21
-73.3999999999999915
0
LINE
8
BLACK
6
CONTINUOUS
10
125.4249999999999972
20
-73.3999999999999915
11
125.4249999999999972
21
-127.3999999999999915
0
LINE
8
BLACK
6
CONTINUOUS
10
125.4249999999999972
20
-127.3999999999999915
11
125.4249999999999972
21
-127.5559129999999897
0
LINE
8
BLACK
6
CONTINUOUS
10
125.4249999999999972
20
-127.5559129999999897
11
125.4575940000000003
21
-127.8660309999999924
0
LINE
8
BLACK
6
CONTINUOUS
10
125.4575940000000003
20
-127.8660309999999924
11
125.5224269999999933
21
-128.1710429999999974
0
LINE
8
BLACK
6
CONTINUOUS
10
125.5224269999999933
20
-128.1710429999999974
11
125.6187860000000001
21
-128.4676079999999843
0
LINE
8
BLACK
6
CONTINUOUS
10
125.6187860000000001
20
-128.4676079999999843
11
125.7456179999999932
21
-128.752475000000004
0
LINE
8
BLACK
6
CONTINUOUS
10
125.7456179999999932
20
-128.752475000000004
11
125.9015309999999914
21
-129.0225250000000017
0
LINE
8
BLACK
6
CONTINUOUS
10
125.9015309999999914
20
-129.0225250000000017
11
126.0848179999999985
21
-129.2747980000000041
0
LINE
8
BLACK
6
CONTINUOUS
10
126.0848179999999985
20
-129.2747980000000041
11
126.2934699999999992
21
-129.5065299999999979
0
LINE
8
BLACK
6
CONTINUOUS
10
126.2934699999999992
20
-129.5065299999999979
11
126.5252019999999931
21
-129.7151819999999987
0
LINE
8
BLACK
6
CONTINUOUS
10
126.5252019999999931
20
-129.7151819999999987
11
126.7774749999999955
21
-129.8984690000000057
0
LINE
8
BLACK
6
CONTINUOUS
10
126.7774749999999955
20
-129.8984690000000057
11
127.0475249999999932
21
-130.0543820000000039
0
LINE
8
BLACK
6
CONTINUOUS
10
127.0475249999999932
20
-130.0543820000000039
11
127.3323919999999987
21
-130.1812139999999829
0
LINE
8
BLACK
6
CONTINUOUS
10
127.3323919999999987
20
-130.1812139999999829
11
127.6289569999999998
21
-130.2775729999999896
0
LINE
8
BLACK
6
CONTINUOUS
10
127.6289569999999998
20
-130.2775729999999896
11
127.9339689999999905
21
-130.3424059999999827
0
LINE
8
BLACK
6
CONTINUOUS
10
127.9339689999999905
20
-130.3424059999999827
11
128.2440870000000075
21
-130.375
0
LINE
8
BLACK
6
CONTINUOUS
10
128.2440870000000075
20
-130.375
11
128.4000000000000057
21
-130.375
0
LINE
8
BLACK
6
CONTINUOUS
10
128.4000000000000057
20
-130.375
11
162.4000000000000057
21
-130.375
0
LINE
8
BLACK
6
CONTINUOUS
10
162.4000000000000057
20
-130.375
11
162.5559130000000039
21
-130.375
0
LINE
8
BLACK
6
CONTINUOUS
10
162.5559130000000039
20
-130.375
11
162.8660309999999924
21
-130.3424059999999827
0
LINE
8
BLACK
6
CONTINUOUS
10
162.8660309999999924
20
-130.3424059999999827
11
163.1710429999999974
21
-130.2775729999999896
0
LINE
8
BLACK
6
CONTINUOUS
10
163.1710429999999974
20
-130.2775729999999896
11
163.4676079999999843
21
-130.1812139999999829
0
LINE
8
BLACK
6
CONTINUOUS
10
163.4676079999999843
20
-130.1812139999999829
11
163.752475000000004
21
-130.0543820000000039
0
LINE
8
BLACK
6
CONTINUOUS
10
163.752475000000004
20
-130.0543820000000039
11
164.0225250000000017
21
-129.8984690000000057
0
LINE
8
BLACK
6
CONTINUOUS
10
164.0225250000000017
20
-129.8984690000000057
11
164.2747980000000041
21
-129.7151819999999987
0
LINE
8
BLACK
6
CONTINUOUS
10
164.2747980000000041
20
-129.7151819999999987
11
164.5065299999999979
21
-129.5065299999999979
0
LINE
8
BLACK
6
CONTINUOUS
10
164.5065299999999979
20
-129.5065299999999979
11
164.7151819999999987
21
-129.2747980000000041
0
LINE
8
BLACK
6
CONTINUOUS
10
164.7151819999999987
20
-129.2747980000000041
11
164.8984690000000057
21
-129.0225250000000017
0
LINE
8
BLACK
6
CONTINUOUS
10
164.8984690000000057
20
-129.0225250000000017
11
165.0543820000000039
21
-128.752475000000004
0
LINE
8
BLACK
6
CONTINUOUS
10
165.0543820000000039
20
-128.752475000000004
11
165.1812139999999829
21
-128.4676079999999843
0
LINE
8
BLACK
6
CONTINUOUS
10
165.1812139999999829
20
-128.4676079999999843
11
165.2775729999999896
21
-128.1710429999999974
0
LINE
8
BLACK
6
CONTINUOUS
10
165.2775729999999896
20
-128.1710429999999974
11
165.3424059999999827
21
-127.8660309999999924
0
LINE
8
BLACK
6
CONTINUOUS
10
165.3424059999999827
20
-127.8660309999999924
11
165.375
21
-127.5559129999999897
0
LINE
8
BLACK
6
CONTINUOUS
10
165.375
20
-127.5559129999999897
11
165.375
21
-127.3999999999999915
0
LINE
8
BLACK
6
CONTINUOUS
10
165.375
20
-127.3999999999999915
11
165.375
21
-73.3999999999999915
0
LINE
8
BLACK
6
CONTINUOUS
10
165.375
20
-73.3999999999999915
11
165.375
21
-73.2440869999999933
0
LINE
8
BLACK
6
CONTINUOUS
10
165.375
20
-73.2440869999999933
11
165.3424059999999827
21
-72.9339689999999905
0
LINE
8
BLACK
6
CONTINUOUS
10
165.3424059999999827
20
-72.9339689999999905
11
165.2775729999999896
21
-72.6289569999999998
0
LINE
8
BLACK
6
CONTINUOUS
10
165.2775729999999896
20
-72.6289569999999998
11
165.1812139999999829
21
-72.3323919999999987
0
LINE
8
BLACK
6
CONTINUOUS
10
165.1812139999999829
20
-72.3323919999999987
11
165.0543820000000039
21
-72.0475249999999932
0
LINE
8
BLACK
6
CONTINUOUS
10
165.0543820000000039
20
-72.0475249999999932
11
164.8984690000000057
21
-71.7774749999999955
0
LINE
8
BLACK
6
CONTINUOUS
10
164.8984690000000057
20
-71.7774749999999955
11
164.7151819999999987
21
-71.5252019999999931
0
LINE
8
BLACK
6
CONTINUOUS
10
164.7151819999999987
20
-71.5252019999999931
11
164.5065299999999979
21
-71.2934699999999992
0
LINE
8
BLACK
6
CONTINUOUS
10
164.5065299999999979
20
-71.2934699999999992
11
164.2747980000000041
21
-71.0848179999999985
0
LINE
8
BLACK
6
CONTINUOUS
10
164.2747980000000041
20
-71.0848179999999985
11
164.0225250000000017
21
-70.9015309999999914
0
LINE
8
BLACK
6
CONTINUOUS
10
164.0225250000000017
20
-70.9015309999999914
11
163.752475000000004
21
-70.7456179999999932
0
LINE
8
BLACK
6
CONTINUOUS
10
163.752475000000004
20
-70.7456179999999932
11
163.4676079999999843
21
-70.6187860000000001
0
LINE
8
BLACK
6
CONTINUOUS
10
163.4676079999999843
20
-70.6187860000000001
11
163.1710429999999974
21
-70.5224269999999933
0
LINE
8
BLACK
6
CONTINUOUS
10
163.1710429999999974
20
-70.5224269999999933
11
162.8660309999999924
21
-70.4575940000000003
0
LINE
8
BLACK
6
CONTINUOUS
10
162.8660309999999924
20
-70.4575940000000003
11
162.5559130000000039
21
-70.4249999999999972
0
LINE
8
BLACK
6
CONTINUOUS
10
162.5559130000000039
20
-70.4249999999999972
11
162.4000000000000057
21
-70.4249999999999972
0
LINE
8
BLACK
6
CONTINUOUS
10
162.4000000000000057
20
-70.4249999999999972
11
128.4000000000000057
21
-70.4249999999999972
  0
ENDSEC
  0
EOF
